<?xml version="1.0" standalone="no"?>
<!DOCTYPE svg PUBLIC "-//W3C//DTD SVG 20010904//EN"
 "http://www.w3.org/TR/2001/REC-SVG-20010904/DTD/svg10.dtd">
<svg version="1.0" xmlns="http://www.w3.org/2000/svg"
 width="512.000000pt" height="512.000000pt" viewBox="0 0 512.000000 512.000000"
 preserveAspectRatio="xMidYMid meet">

<g transform="translate(0.000000,512.000000) scale(0.100000,-0.100000)"
fill="#000000" stroke="none">
<path d="M2412 5100 c-109 -29 -187 -74 -272 -160 -87 -86 -131 -163 -160
-276 -36 -141 -18 -294 52 -427 42 -81 164 -203 245 -245 133 -70 286 -88 427
-52 113 29 190 73 276 160 87 86 131 163 160 276 36 141 18 294 -52 427 -42
81 -164 203 -245 245 -132 69 -291 88 -431 52z m258 -414 c59 -39 85 -89 85
-166 0 -78 -26 -127 -88 -168 -56 -37 -153 -39 -210 -3 -76 47 -111 140 -88
229 14 51 75 117 123 131 53 16 135 6 178 -23z"/>
<path d="M852 4700 c-109 -29 -187 -74 -272 -160 -87 -86 -131 -163 -160 -276
-36 -141 -18 -294 52 -427 42 -81 164 -203 245 -245 133 -70 286 -88 427 -52
113 29 190 73 276 160 87 86 131 163 160 276 36 141 18 294 -52 427 -42 81
-164 203 -245 245 -132 69 -291 88 -431 52z m258 -414 c59 -39 85 -89 85 -166
0 -78 -26 -127 -88 -168 -56 -37 -153 -39 -210 -3 -76 47 -111 140 -88 229 14
51 75 117 123 131 53 16 135 6 178 -23z"/>
<path d="M3972 4700 c-109 -29 -187 -74 -272 -160 -87 -86 -131 -163 -160
-276 -36 -141 -18 -294 52 -427 42 -81 164 -203 245 -245 133 -70 286 -88 427
-52 113 29 190 73 276 160 87 86 131 163 160 276 36 141 18 294 -52 427 -42
81 -164 203 -245 245 -132 69 -291 88 -431 52z m258 -414 c59 -39 85 -89 85
-166 0 -78 -26 -127 -88 -168 -56 -37 -153 -39 -210 -3 -76 47 -111 140 -88
229 14 51 75 117 123 131 53 16 135 6 178 -23z"/>
<path d="M2341 3719 c-382 -46 -665 -217 -797 -484 -88 -178 -87 -165 -91
-794 -5 -634 -3 -651 72 -806 54 -114 144 -214 260 -290 87 -57 122 -94 152
-161 16 -35 18 -88 23 -544 l5 -505 24 -38 c13 -21 42 -50 64 -65 34 -23 52
-27 107 -27 55 0 73 4 107 27 22 15 51 44 64 65 l24 38 3 495 c3 569 1 593
-74 748 -55 114 -142 210 -265 293 -92 61 -137 117 -158 194 -15 56 -15 1005
0 1077 53 253 295 387 694 387 399 0 641 -135 694 -387 7 -35 11 -221 11 -546
0 -540 -1 -553 -60 -634 -16 -22 -64 -65 -107 -93 -149 -100 -242 -220 -300
-384 l-28 -80 0 -535 0 -535 24 -38 c13 -21 42 -50 64 -65 34 -23 52 -27 107
-27 55 0 73 4 107 27 22 15 51 44 64 65 l24 38 5 505 c5 501 5 505 28 555 29
63 60 96 142 150 71 47 165 138 206 198 46 69 93 180 109 263 14 69 16 156 12
630 -4 614 -4 613 -77 771 -48 103 -83 154 -156 227 -138 138 -327 228 -569
271 -110 20 -398 27 -514 14z"/>
<path d="M705 3304 c-137 -25 -197 -44 -300 -94 -214 -105 -340 -262 -386
-482 -17 -84 -19 -140 -19 -591 0 -572 2 -593 77 -747 41 -86 57 -106 160
-208 169 -166 157 -121 163 -627 l5 -420 24 -38 c13 -21 42 -50 64 -65 34 -23
52 -27 107 -27 55 0 73 4 107 27 22 15 51 44 64 65 l24 38 3 410 c3 477 -1
512 -74 665 -42 86 -58 106 -161 208 -172 169 -158 106 -158 722 l0 515 29 58
c49 100 148 161 314 193 41 8 104 14 142 14 99 0 170 16 210 48 45 36 80 105
80 157 -1 75 -57 159 -123 184 -40 15 -257 12 -352 -5z"/>
<path d="M4055 3306 c-65 -30 -115 -111 -115 -183 1 -74 59 -158 129 -185 14
-5 87 -13 161 -18 261 -17 393 -77 457 -208 l28 -57 0 -515 c0 -616 14 -553
-158 -722 -103 -102 -119 -122 -161 -208 -73 -153 -77 -188 -74 -665 l3 -410
24 -38 c13 -21 42 -50 64 -65 34 -23 52 -27 107 -27 55 0 73 4 107 27 22 15
51 44 64 65 l24 38 5 420 c6 506 -6 461 163 627 103 102 119 122 161 208 76
157 78 175 74 781 -4 583 -4 582 -77 730 -92 188 -284 326 -536 385 -137 32
-400 44 -450 20z"/>
<path d="M1332 1089 c-46 -14 -109 -80 -122 -129 -7 -27 -10 -171 -8 -433 l3
-392 24 -38 c13 -21 42 -50 64 -65 34 -23 52 -27 107 -27 55 0 73 4 107 27 22
15 51 44 64 65 l24 38 0 415 0 415 -24 38 c-47 76 -151 113 -239 86z"/>
<path d="M3652 1089 c-46 -14 -109 -80 -122 -129 -7 -27 -10 -171 -8 -433 l3
-392 24 -38 c13 -21 42 -50 64 -65 34 -23 52 -27 107 -27 55 0 73 4 107 27 22
15 51 44 64 65 l24 38 0 415 0 415 -24 38 c-47 76 -151 113 -239 86z"/>
</g>
</svg>
